<svg xmlns="http://www.w3.org/2000/svg">
  <symbol id="doi" viewBox="0 0 48 48">
    <path d="m49.851 197c-5.8758 0.0209-11.737 1.0629-17.247 3.1037-5.6592 2.0964-10.874 5.1956-15.462 9.1906-1.2796 1.114-3.0397 2.8334-4.1033 4.0084-5.1341 5.6718-8.759 12.065-10.945 19.302-1.693 5.606-2.3826 11.782-1.9836 17.764 0.67957 10.187 4.4497 19.875 10.843 27.864 0.68532 0.85628 1.5494 1.8627 2.3014 2.6805 0.5567 0.60541 2.005 2.0606 2.6528 2.6654 6.0793 5.6759 13.327 9.6847 21.344 11.805 4.5209 1.1958 9.5484 1.7542 14.29 1.5871 2.9521-0.10404 5.6556-0.42085 8.4616-0.99161 7.7157-1.5694 14.982-4.957 21.121-9.8469 3.6171-2.8811 6.8813-6.3068 9.5449-10.017 5.1017-7.1069 8.2222-15.391 9.0895-24.132 0.26539-2.6745 0.31346-5.5968 0.13658-8.3028-0.53504-8.1856-3.0586-16.066-7.3718-23.019-3.1051-5.006-7.1213-9.4752-11.792-13.122-5.7829-4.5152-12.514-7.7053-19.653-9.3148-3.689-0.83167-7.4614-1.2378-11.228-1.2244zm-17.915 19.045c0.4493 0 0.96756 3.4e-4 1.5655 3.4e-4 4.7257 0 4.4728-0.01 4.5704 0.17888 0.04321 0.0835 0.0477 2.2606 0.0477 22.947 0 20.046-0.0054 22.866-0.04478 22.941-0.02504 0.0484-0.08745 0.1015-0.14164 0.12039-0.14415 0.0503-8.7687 0.0477-8.8791-2e-3 -0.16825-0.0767-0.16669-0.0592-0.16669-1.9121 0-1.1873-0.0099-1.7078-0.03245-1.7078-0.01787 0-0.17209 0.12714-0.34278 0.2825-1.1037 1.0046-2.2792 1.8054-3.6315 2.474-1.8084 0.89405-3.7388 1.4482-5.57 1.599-0.44982 0.037-1.6011 0.0358-2.0474-2e-3 -2.6861-0.22877-5.3573-1.3976-7.722-3.379-2.5177-2.1096-4.0636-5.1362-4.6451-9.0943-0.31759-2.1619-0.28737-4.194 0.091528-6.1548 0.72317-3.7422 2.5569-6.5845 5.8319-9.0395 2.021-1.5149 3.8211-2.4238 5.5041-2.7792 1.2401-0.26182 2.98-0.39674 4.1997-0.32564 3.1472 0.18345 5.645 1.2266 7.9125 3.3044 0.21262 0.19483 0.40116 0.3542 0.41896 0.3542 0.02279 0 0.03238-2.89 0.03238-9.7531 0-8.8187 0.0048-9.7629 0.048-9.8544 0.08766-0.18473-0.14453-0.19732 3.0006-0.19758zm49.639 0.21405c1.1988-2e-3 2.3263 0.35143 3.2846 1.0288 0.36939 0.26108 0.96145 0.85251 1.2267 1.2254 0.2179 0.30632 0.61627 1.0759 0.72061 1.3921 0.54584 1.6538 0.34304 3.4396-0.55452 4.8828-0.74909 1.2044-2.0855 2.1079-3.5155 2.3768-0.60738 0.11421-1.1007 0.14137-1.6609 0.0916-1.3392-0.11917-2.6066-0.72215-3.4987-1.6646-1.0864-1.1477-1.6374-2.8268-1.4608-4.4517 0.30845-2.838 2.5886-4.8768 5.4584-4.8809zm-24.309 15.527c1.1703 3e-3 2.3146 0.088 3.3246 0.25822 3.535 0.59546 6.4789 2.161 8.8591 4.711 1.1027 1.1814 1.8868 2.2925 2.5651 3.635 0.92219 1.8251 1.415 3.6471 1.5732 5.8158 0.05214 0.71498 0.02054 2.3808-0.05901 3.1117-0.2303 2.1164-0.70549 3.8405-1.5085 5.4731-0.72561 1.4752-1.5098 2.5703-2.6835 3.7475-0.85109 0.85368-1.4874 1.3767-2.485 2.0424-2.6537 1.771-5.1136 2.5249-8.8819 2.7222-0.65433 0.0342-1.9354 0.0332-2.529-2e-3 -3.2159-0.19073-6.2864-1.1849-8.7752-2.8413-0.78124-0.51994-1.3682-1.0046-2.0895-1.7251-0.74637-0.74562-1.2323-1.3399-1.7741-2.1695-1.3854-2.1215-2.2662-4.6648-2.6153-7.552-0.05889-0.48675-0.06846-0.71961-0.07011-1.7063-0.0018-1.1993 0.01532-1.4687 0.15188-2.3585 0.33513-2.184 1.2999-4.5143 2.7165-6.5616 2.166-3.1303 5.3181-5.1926 9.3222-6.0991 1.4824-0.33559 3.2481-0.50611 4.9585-0.5016zm26.855 1.0523c1.9228 0 2.0952 0.0109 2.1706 0.0487 0.06079 0.0305 0.12956 0.0994 0.15997 0.16015 0.05061 0.10119 0.05292 0.84343 0.04569 14.534-0.0071 13.38-0.0113 14.432-0.05815 14.498-0.02777 0.0393-0.08264 0.0941-0.12188 0.12188-0.06565 0.0465-0.44165 0.0507-4.7077 0.0534-3.6772 2e-3 -4.6553-5e-3 -4.7281-0.0356-0.05043-0.0212-0.11682-0.0767-0.14741-0.12342-0.05366-0.0819-0.0556-0.5965-0.0556-14.529 0-11.882 0.0071-14.461 0.0401-14.539 0.08037-0.19035-0.22787-0.17848 4.835-0.18698 1.0911-2e-3 1.9265-3e-3 2.5674-3e-3zm-62.318 7.4161c-0.53876 0-0.64294 8e-3 -0.89885 0.072-2.1511 0.53508-4.033 2.0526-5.0287 4.055-0.88064 1.7711-1.0044 3.7023-0.35938 5.6058 0.37078 1.0942 1.0275 2.1597 1.8228 2.9577 1.0027 1.006 2.2102 1.6 3.5501 1.7466 0.28681 0.0313 1.2561-0.0108 1.5692-0.0684 1.2764-0.23439 2.4592-0.77658 3.3821-1.5504 1.3101-1.0984 2.2102-2.6623 2.5907-4.5015 0.16067-0.77658 0.26772-1.9903 0.22977-2.6051-0.10555-1.7103-1.2526-3.3749-3.0957-4.4925-0.74375-0.451-1.9149-0.92646-2.7935-1.1341-0.33028-0.0781-0.40817-0.085-0.96854-0.085zm35.02 0.47489c-0.53757-4e-3 -0.91449 0.0353-1.3587 0.13568-1.1685 0.26403-2.0811 0.76351-2.9736 1.6276-1.1991 1.1609-1.8949 2.5983-2.0933 4.3249-0.05256 0.45713-0.02151 1.4981 0.05871 1.967 0.24935 1.4585 0.86463 2.6728 1.8616 3.674 1.3787 1.3846 3.2398 2.0788 5.1352 1.9154 2.264-0.19511 4.1988-1.524 5.2101-3.5785 0.33897-0.68866 0.55549-1.382 0.67086-2.1481 0.0694-0.4608 0.09381-1.4443 0.04734-1.9086-0.1598-1.5974-0.80505-2.9419-1.9717-4.1085-0.5689-0.56889-1.0908-0.95681-1.6825-1.2505-0.86483-0.42926-1.6495-0.61971-2.663-0.64633-0.08402-2e-3 -0.16405-4e-3 -0.24084-4e-3z" stroke-width=".026036"/>
  </symbol>
</svg>
