<?xml version="1.0" encoding="UTF-8"?>
<!-- Created with Inkscape (http://www.inkscape.org/) -->
<svg width="24mm" height="24mm" version="1.1" viewBox="0 0 24 24" xmlns="http://www.w3.org/2000/svg" xmlns:cc="http://creativecommons.org/ns#" xmlns:dc="http://purl.org/dc/elements/1.1/" xmlns:rdf="http://www.w3.org/1999/02/22-rdf-syntax-ns#">
 <metadata>
  <rdf:RDF>
   <cc:Work rdf:about="">
    <dc:format>image/svg+xml</dc:format>
    <dc:type rdf:resource="http://purl.org/dc/dcmitype/StillImage"/>
    <dc:title/>
   </cc:Work>
  </rdf:RDF>
 </metadata>
 <g transform="translate(0,-273)">
  <path d="m11.964 273c-1.4102 5e-3 -2.817 0.25509-4.1392 0.74488-1.3582 0.50313-2.6097 1.247-3.711 2.2058-0.3071 0.26736-0.72954 0.68003-0.9848 0.96202-1.2322 1.3612-2.1021 2.8955-2.6267 4.6325-0.40631 1.3454-0.57183 2.8277-0.47607 4.2632 0.1631 2.445 1.0679 4.7701 2.6024 6.6874 0.16448 0.20551 0.37185 0.44705 0.55234 0.64333 0.13361 0.1453 0.48119 0.49454 0.63666 0.6397 1.459 1.3622 3.1985 2.3243 5.1225 2.8332 1.085 0.287 2.2916 0.42101 3.4296 0.3809 0.70852-0.025 1.3573-0.10101 2.0308-0.23799 1.8518-0.37666 3.5956-1.1897 5.069-2.3632 0.86811-0.69147 1.6515-1.5136 2.2908-2.4042 1.2244-1.7057 1.9733-3.6939 2.1815-5.7916 0.06369-0.64189 0.07523-1.3432 0.03278-1.9927-0.12841-1.9645-0.73406-3.8558-1.7692-5.5247-0.74521-1.2014-1.7091-2.274-2.83-3.1492-1.3879-1.0836-3.0033-1.8493-4.7167-2.2356-0.88536-0.1996-1.7907-0.29708-2.6947-0.29386zm-4.2995 4.5707c0.10783 0 0.23221 9e-5 0.37572 9e-5 1.1342 0 1.0735-2e-3 1.0969 0.0429 0.01037 0.02 0.011448 0.54255 0.011448 5.5073 0 4.811-0.0013 5.4877-0.010747 5.506-0.00601 0.0116-0.020988 0.0244-0.033994 0.0289-0.034595 0.0121-2.1045 0.0114-2.131-4.8e-4 -0.040381-0.0184-0.040006-0.0142-0.040006-0.45891 0-0.28495-0.00238-0.40988-0.00779-0.40988-0.00429 0-0.041302 0.0305-0.082268 0.0678-0.26488 0.2411-0.547 0.43329-0.87157 0.59375-0.43402 0.21457-0.89731 0.34757-1.3368 0.38376-0.10796 9e-3 -0.38427 9e-3 -0.49138-4.8e-4 -0.64466-0.0549-1.2858-0.33543-1.8533-0.81097-0.60426-0.50632-0.97526-1.2327-1.1148-2.1826-0.076222-0.51885-0.06897-1.0066 0.021967-1.4771 0.17356-0.89814 0.61365-1.5803 1.3997-2.1695 0.48504-0.36358 0.91707-0.58172 1.321-0.667 0.29761-0.0628 0.71521-0.0952 1.0079-0.0782 0.75532 0.044 1.3548 0.29439 1.899 0.79306 0.05103 0.0468 0.096277 0.085 0.10055 0.085 0.00547 0 0.00777-0.6936 0.00777-2.3407 0-2.1165 0.00115-2.3431 0.01152-2.3651 0.021038-0.0443-0.034687-0.0474 0.72014-0.0474zm11.913 0.0514c0.28771-4.8e-4 0.55832 0.0843 0.78831 0.2469 0.08865 0.0627 0.23075 0.2046 0.29441 0.29408 0.0523 0.0735 0.1479 0.25822 0.17295 0.3341 0.131 0.39692 0.08233 0.82552-0.13308 1.1719-0.17978 0.28905-0.50051 0.50589-0.84372 0.57042-0.14577 0.0274-0.26417 0.0339-0.39861 0.022-0.32141-0.0286-0.62557-0.17332-0.83969-0.39951-0.26073-0.27544-0.39298-0.67844-0.35059-1.0684 0.07403-0.68111 0.62126-1.1704 1.31-1.1714zm-5.8341 3.7264c0.28086 7.2e-4 0.5555 0.0211 0.7979 0.062 0.84839 0.14291 1.5549 0.51863 2.1262 1.1306 0.26465 0.28354 0.45283 0.5502 0.61564 0.8724 0.22132 0.43802 0.33961 0.8753 0.37756 1.3958 0.01251 0.1716 0.0049 0.5714-0.01416 0.7468-0.05527 0.50795-0.16932 0.92171-0.36205 1.3135-0.17415 0.35404-0.36235 0.61687-0.64403 0.89941-0.20426 0.20488-0.35697 0.3304-0.5964 0.49018-0.6369 0.42503-1.2273 0.60598-2.1316 0.65332-0.15704 8e-3 -0.4645 8e-3 -0.60695-4.8e-4 -0.77181-0.0458-1.5087-0.28438-2.1061-0.68191-0.1875-0.12479-0.32838-0.24109-0.50149-0.41403-0.17913-0.17895-0.29576-0.32158-0.42578-0.52068-0.3325-0.50917-0.54388-1.1196-0.62768-1.8125-0.014134-0.11682-0.01643-0.17271-0.016826-0.40951-4.32e-4 -0.28784 0.00368-0.35248 0.03645-0.56604 0.08043-0.52416 0.31197-1.0834 0.65196-1.5748 0.51984-0.75127 1.2764-1.2462 2.2373-1.4638 0.35578-0.0806 0.77955-0.12147 1.19-0.12039zm6.4452 0.25256c0.46146 0 0.50285 3e-3 0.52094 0.0117 0.01459 7e-3 0.0311 0.0239 0.03839 0.0384 0.01215 0.0243 0.0127 0.20242 0.01096 3.4881-0.0017 3.2112-0.0027 3.4638-0.01396 3.4796-0.0067 9e-3 -0.01983 0.0226-0.02925 0.0293-0.01576 0.0112-0.106 0.0122-1.1299 0.0128-0.88252 4.8e-4 -1.1173-1e-3 -1.1347-9e-3 -0.0121-5e-3 -0.02804-0.0184-0.03538-0.0296-0.01288-0.0197-0.01334-0.14316-0.01334-3.4869 0-2.8516 0.0017-3.4705 0.0096-3.4893 0.01929-0.0457-0.05469-0.0428 1.1604-0.0449 0.26187-4.8e-4 0.46236-7.2e-4 0.61618-7.2e-4zm-14.956 1.7799c-0.1293 0-0.1543 2e-3 -0.21572 0.0173-0.51626 0.12842-0.96792 0.49263-1.2069 0.9732-0.21135 0.42506-0.24106 0.88856-0.086252 1.3454 0.088988 0.26261 0.24659 0.51834 0.43746 0.70984 0.24064 0.24143 0.53045 0.38401 0.85201 0.41917 0.068834 8e-3 0.30146-3e-3 0.3766-0.0164 0.30633-0.0563 0.5902-0.18638 0.81171-0.37209 0.31443-0.26361 0.53045-0.63895 0.62178-1.0804 0.038561-0.18638 0.064252-0.47767 0.055146-0.62523-0.025333-0.41046-0.30063-0.80998-0.74297-1.0782-0.1785-0.10824-0.45958-0.22235-0.67044-0.27219-0.079268-0.0187-0.09796-0.0204-0.23245-0.0204zm8.4047 0.11397c-0.12902-9.6e-4 -0.21948 8e-3 -0.32609 0.0326-0.28044 0.0634-0.49946 0.18324-0.71367 0.39062-0.28779 0.27861-0.45476 0.6236-0.50239 1.038-0.01261 0.10971-0.0052 0.35954 0.01409 0.47207 0.05984 0.35003 0.20751 0.64146 0.44677 0.88175 0.33088 0.33231 0.77754 0.49891 1.2324 0.45971 0.54337-0.0468 1.0077-0.36575 1.2504-0.85883 0.08135-0.16528 0.13332-0.33168 0.16101-0.51554 0.01666-0.11059 0.02251-0.34663 0.01136-0.45806-0.03835-0.38337-0.19321-0.70605-0.47321-0.98604-0.13654-0.13654-0.2618-0.22964-0.4038-0.30012-0.20756-0.10302-0.39588-0.14873-0.63913-0.15512-0.02017-4.8e-4 -0.03937-9.6e-4 -0.0578-9.6e-4z" fill="#268bd2" stroke-width=".0062487"/>
 </g>
</svg>
